# xmcd
#
# Track frame offsets:
#	150
#	21272
#	38134
#	56373
#	83272
#	105674
#	120837
#	145796
#	171173
#	190868
#
# Disc length: 2752 seconds
#
# Revision: 0
# Processed by: cddbd v1.5.2PL0 Copyright (c) Steve Scherf et al.
# Submitted via: EasyCDDAExtractor 2010.4.0.0
#
DISCID=700abe0a
DTITLE=Jane e Luzia - Viver pela Fé
DYEAR=2000
DGENRE=Gospel Sertanejo
TTITLE0=Chame o Jardineiro
TTITLE1=Coragem
TTITLE2=Amor sem Fim
TTITLE3=De quem Serás
TTITLE4=Viver pela Fé
TTITLE5=Filho de Davi
TTITLE6=Senhor Amado
TTITLE7=Sangue que Fala
TTITLE8=Bandeira Ensanguentada
TTITLE9=Amor sem Igual
EXTD=
EXTT0=
EXTT1=
EXTT2=
EXTT3=
EXTT4=
EXTT5=
EXTT6=
EXTT7=
EXTT8=
EXTT9=
PLAYORDER=
